,
.   http://www.scenetime.com/signup.php  ---&gt;  Hottest scene tracker on the net !!!  

    Join Now   http://www.scenetime.com/signup.php

    seed back for speed


 



...................................NFO:.................................................Killer Elite 2011 BRRiP XviD READNFO AC3  - MiSTERE
 
http://www.imdb.com/title/tt1448755/

Video
ID                               : 0
Format                           : MPEG-4 Visual
Format profile                   : Advanced Simple@L5
Format settings, BVOP            : 2
Format settings, QPel            : No
Format settings, GMC             : No warppoints
Format settings, Matrix          : Default (H.263)
Muxing mode                      : Packed bitstream
Codec ID                         : XVID
Codec ID/Hint                    : XviD
Duration                         : 1h 56mn
Bit rate                         : 1 895 Kbps
Width                            : 720 pixels
Height                           : 304 pixels
Display aspect ratio             : 2.35:1
Frame rate                       : 29.970 fps
Color space                      : YUV
Chroma subsampling               : 4:2:0
Bit depth                        : 8 bits
Scan type                        : Progressive
Compression mode                 : Lossy
Bits/(Pixel*Frame)               : 0.289
Stream size                      : 1.54 GiB (90%)
Writing library                  : XviD 64

Audio
ID                               : 1
Format                           : AC-3
Format/Info                      : Audio Coding 3
Mode extension                   : CM (complete main)
Codec ID                         : 2000
Duration                         : 1h 56mn
Bit rate mode                    : Constant
Bit rate                         : 192 Kbps
Channel(s)                       : 2 channels
Channel positions                : Front: L R
Sampling rate                    : 48.0 KHz
Bit depth                        : 16 bits
Compression mode                 : Lossy
Stream size                      : 160 MiB (9%)
Alignment                        : Aligned on interleaves
Interleave, duration             : 33 ms (1.00 video frame)


Sharpened Resized and tweaked RGB
*Subs hardcoded in Korean throughout

[IMG]http://i.imgur.com/hky2x.png[/IMG]
[IMG]http://i.imgur.com/F1D96.png[/IMG]
[IMG]http://i.imgur.com/Mcm70.png[/IMG]
[IMG]http://i.imgur.com/r9TpJ.png[/IMG]
[IMG]http://i.imgur.com/p3vxo.png[/IMG]